<?xml version="1.0" encoding="utf-8"?>
<!-- Generator: Adobe Illustrator 19.0.0, SVG Export Plug-In . SVG Version: 6.00 Build 0)  -->
<!DOCTYPE svg PUBLIC "-//W3C//DTD SVG 1.1//EN" "http://www.w3.org/Graphics/SVG/1.1/DTD/svg11.dtd">
<svg version="1.1" id="Layer_1" xmlns="http://www.w3.org/2000/svg" xmlns:xlink="http://www.w3.org/1999/xlink" x="0px" y="0px"
	 viewBox="-565 725 252 152" style="enable-background:new -565 725 252 152;" xml:space="preserve">
<style type="text/css">
	.st0{fill:#EDEDED;}
	.st1{fill:#94B8B6;}
	.st2{fill:#FEE8C7;}
	.st3{fill:#E21F26;}
	.st4{fill:#3D3D3C;}
</style>
<g>
	<g>
		<path class="st0" d="M-558.4,774.3l0.7,2.9c1.5-0.4,3,0.6,3.3,2.1c0.4,1.5-0.6,3-2.1,3.3l0.7,2.9c1.5-0.4,3,0.6,3.3,2.1
			c0.4,1.5-0.6,3-2.1,3.3l0.7,2.9c1.5-0.4,3,0.6,3.3,2.1c0.4,1.5-0.6,3-2.1,3.3l0.7,2.9c1.5-0.4,3,0.6,3.3,2.1
			c0.4,1.5-0.6,3-2.1,3.3l0.7,2.9c1.5-0.4,3,0.6,3.3,2.1c0.4,1.5-0.6,3-2.1,3.3l0.7,2.9c1.5-0.4,3,0.6,3.3,2.1
			c0.4,1.5-0.6,3-2.1,3.3l0.7,2.9c1.5-0.4,3,0.6,3.3,2.1c0.4,1.5-0.6,3-2.1,3.3l0.7,2.9c1.5-0.4,3,0.6,3.3,2.1
			c0.4,1.5-0.6,3-2.1,3.3l0.7,2.9c1.5-0.4,3,0.6,3.3,2.1c0.4,1.5-0.6,3-2.1,3.3l0.7,2.9c1.5-0.4,3,0.6,3.3,2.1
			c0.4,1.5-0.6,3-2.1,3.3l0.7,2.9c1.5-0.4,3,0.6,3.3,2.1c0.3,1.5-0.6,3-2.1,3.3l0.7,2.9c0.4-0.1,0.7-0.1,1.1,0l178.1-41.9l-0.7-2.9
			c-1.5,0.4-3-0.6-3.3-2.1c-0.4-1.5,0.6-3,2.1-3.3l-0.7-2.9c-1.5,0.4-3-0.6-3.3-2.1c-0.4-1.5,0.6-3,2.1-3.3l-0.7-2.9
			c-1.5,0.4-3-0.6-3.3-2.1c-0.4-1.5,0.6-3,2.1-3.3l-0.7-2.9c-1.5,0.4-3-0.6-3.3-2.1c-0.4-1.5,0.6-3,2.1-3.3l-0.7-2.9
			c-1.5,0.4-3-0.6-3.3-2.1c-0.4-1.5,0.6-3,2.1-3.3l-0.7-2.9c-1.5,0.4-3-0.6-3.3-2.1c-0.4-1.5,0.6-3,2.1-3.3l-0.7-2.9
			c-1.5,0.4-3-0.6-3.3-2.1c-0.4-1.5,0.6-3,2.1-3.3l-0.7-2.9c-1.5,0.4-3-0.6-3.3-2.1c-0.4-1.5,0.6-3,2.1-3.3l-0.7-2.9
			c-1.5,0.4-3-0.6-3.3-2.1c-0.4-1.5,0.6-3,2.1-3.3l-0.7-2.9c-1.5,0.4-3-0.6-3.3-2.1c-0.4-1.5,0.6-3,2.1-3.3l-0.7-2.9
			c-1.5,0.4-3-0.6-3.3-2.1c-0.4-1.5,0.6-3,2.1-3.3l-0.7-2.9c-0.4,0.1-0.7,0.1-1.1,0L-558.4,774.3z"/>
		<path class="st1" d="M-535.2,867.3c-0.1,0-0.2,0-0.2,0l-0.3-1.2c1.5-0.8,2.3-2.5,1.9-4.2c-0.4-1.7-1.9-2.8-3.5-2.9l-0.3-1.2
			c1.5-0.8,2.3-2.5,1.9-4.2c-0.4-1.7-1.9-2.8-3.5-2.9l-0.3-1.2c1.5-0.8,2.3-2.5,1.9-4.2c-0.4-1.7-1.9-2.8-3.5-2.9l-0.3-1.2
			c1.5-0.8,2.3-2.5,1.9-4.2s-1.9-2.8-3.5-2.9l-0.3-1.2c1.5-0.8,2.3-2.5,1.9-4.2c-0.4-1.7-1.9-2.8-3.5-2.9l-0.3-1.2
			c1.5-0.8,2.3-2.5,1.9-4.2c-0.4-1.7-1.9-2.8-3.5-2.9l-0.3-1.2c1.5-0.8,2.3-2.5,1.9-4.2c-0.4-1.7-1.9-2.8-3.5-2.9l-0.3-1.2
			c1.5-0.8,2.3-2.5,1.9-4.2c-0.4-1.7-1.9-2.8-3.5-2.9l-0.3-1.2c1.5-0.8,2.3-2.5,1.9-4.2c-0.4-1.7-1.9-2.8-3.5-2.9l-0.3-1.2
			c1.5-0.8,2.3-2.5,1.9-4.2c-0.4-1.7-1.9-2.8-3.5-2.9l-0.3-1.2c1.5-0.8,2.3-2.5,1.9-4.2c-0.4-1.7-1.9-2.8-3.5-2.9l-0.3-1.1
			l176.9-41.6c0.1,0,0.2,0,0.2,0l0.3,1.2c-1.5,0.8-2.3,2.5-1.9,4.2s1.9,2.8,3.5,2.9l0.3,1.2c-1.5,0.8-2.3,2.5-1.9,4.2
			c0.4,1.7,1.9,2.8,3.5,2.9l0.3,1.2c-1.5,0.8-2.3,2.5-1.9,4.2c0.4,1.7,1.9,2.8,3.5,2.9l0.3,1.2c-1.5,0.8-2.3,2.5-1.9,4.2
			c0.4,1.7,1.9,2.8,3.5,2.9l0.3,1.2c-1.5,0.8-2.3,2.5-1.9,4.2s1.9,2.8,3.5,2.9l0.3,1.2c-1.5,0.8-2.3,2.5-1.9,4.2
			c0.4,1.7,1.9,2.8,3.5,2.9l0.3,1.2c-1.5,0.8-2.3,2.5-1.9,4.2c0.4,1.7,1.9,2.8,3.5,2.9l0.3,1.2c-1.5,0.8-2.3,2.5-1.9,4.2
			c0.4,1.7,1.9,2.8,3.5,2.9l0.3,1.2c-1.5,0.8-2.3,2.5-1.9,4.2s1.9,2.8,3.5,2.9l0.3,1.2c-1.5,0.8-2.3,2.5-1.9,4.2
			c0.4,1.7,1.9,2.8,3.5,2.9l0.3,1.2c-1.5,0.8-2.3,2.5-1.9,4.2s1.9,2.8,3.5,2.9l0.3,1.1L-535.2,867.3z"/>
		
			<rect x="-502.3" y="721.2" transform="matrix(-0.2291 -0.9734 0.9734 -0.2291 -1342.3739 537.8106)" class="st2" width="88.1" height="158.5"/>
		
			<rect x="-530.4" y="824.4" transform="matrix(-0.9734 0.2291 -0.2291 -0.9734 -700.063 1742.0518)" class="st3" width="158.5" height="12"/>
		
			<rect x="-545.1" y="764.2" transform="matrix(-0.9734 0.2291 -0.2291 -0.9734 -742.7017 1627.9417)" class="st3" width="158.5" height="13.3"/>
		<g>
			<path class="st4" d="M-495.6,804.4l-3.8,0.9l-0.5-2l9.8-2.3l0.5,2l-3.8,0.9l2.6,11.1l-2.3,0.5L-495.6,804.4z"/>
			<path class="st4" d="M-483.9,799.6l2.3-0.5l3.1,13l-2.3,0.5L-483.9,799.6z"/>
			<path class="st4" d="M-473.5,804.1c-0.3-1.1-0.3-2.1-0.2-3c0.1-0.9,0.4-1.7,0.8-2.4s0.9-1.3,1.6-1.8s1.4-0.8,2.2-1
				c0.8-0.2,1.6-0.2,2.3,0c0.7,0.2,1.3,0.4,1.8,0.8l-0.9,1.7c-0.4-0.3-0.8-0.4-1.3-0.5c-0.4-0.1-0.9-0.1-1.4,0
				c-0.5,0.1-1,0.4-1.4,0.7c-0.4,0.3-0.7,0.7-0.9,1.2s-0.4,1-0.4,1.7c0,0.6,0,1.3,0.2,2c0.4,1.5,1,2.6,1.8,3.3
				c0.9,0.7,1.8,0.9,2.9,0.7c0.6-0.1,1.1-0.4,1.5-0.7s0.7-0.7,1-1.2l1.6,1.1c-0.4,0.7-0.9,1.3-1.5,1.8s-1.3,0.8-2.1,1
				c-0.8,0.2-1.6,0.2-2.4,0.1c-0.8-0.1-1.5-0.4-2.2-0.9c-0.7-0.4-1.3-1.1-1.8-1.8C-472.8,806.1-473.2,805.2-473.5,804.1z"/>
			<path class="st4" d="M-458.9,793.7l2.3-0.5l1.4,5.9h0.1l3.3-7l2.6-0.6l-2.8,6l6.6,6.9l-2.6,0.6l-5-5.3l-1.3,2.8l0.9,3.8l-2.3,0.5
				L-458.9,793.7z"/>
			<path class="st4" d="M-443.1,790l7.8-1.8l0.5,2l-5.5,1.3l0.8,3.3l4.7-1.1l0.5,2l-4.7,1.1l0.9,3.8l5.7-1.3l0.5,2l-8,1.9
				L-443.1,790z"/>
			<path class="st4" d="M-425.3,787.9l-3.8,0.9l-0.5-2l9.8-2.3l0.5,2l-3.8,0.9l2.6,11.1l-2.3,0.5L-425.3,787.9z"/>
		</g>
		<g>
			<circle class="st3" cx="-507.5" cy="812.1" r="3.3"/>
			<circle class="st3" cx="-409" cy="788.9" r="3.3"/>
		</g>
		<g>
			<path class="st2" d="M-489.9,781c-0.5,0.3-1.4,0.8-2.4,1c-1.3,0.3-2.4,0.2-3.3-0.3s-1.5-1.4-1.8-2.6c-0.6-2.5,0.8-4.5,3.4-5.1
				c1-0.2,1.8-0.2,2.2-0.1v1.2c-0.5-0.1-1-0.1-1.9,0.1c-1.7,0.4-2.6,1.7-2.2,3.5c0.4,1.8,1.8,2.6,3.4,2.2c0.5-0.1,0.9-0.3,1-0.4
				l-0.5-2l-1.4,0.3l-0.3-1.1l2.8-0.6L-489.9,781z"/>
			<path class="st2" d="M-483.5,776.2l-3,0.7l0.5,2.3l3.3-0.8l0.3,1.2l-4.8,1.1l-1.8-7.9l4.6-1.1l0.3,1.2l-3.1,0.7l0.5,2l3-0.7
				L-483.5,776.2z"/>
			<path class="st2" d="M-479.9,772l-2.2,0.5l-0.3-1.2l5.9-1.4l0.3,1.2l-2.3,0.5l1.6,6.7l-1.4,0.3L-479.9,772z"/>
			<path class="st2" d="M-467.7,776.2l-0.8-3.3l-3.6-4l1.6-0.4l1.4,1.8c0.4,0.5,0.7,0.9,1,1.4l0,0c0.1-0.5,0.2-1.1,0.3-1.7l0.5-2.2
				l1.6-0.4l-1.6,5.2l0.8,3.3L-467.7,776.2z"/>
			<path class="st2" d="M-456,769.2c0.6,2.6-0.6,4.5-2.8,5c-2.2,0.5-4-0.9-4.6-3.2c-0.6-2.4,0.6-4.5,2.8-5
				C-458.3,765.6-456.5,767-456,769.2z M-461.8,770.7c0.4,1.6,1.5,2.7,2.9,2.4c1.4-0.3,1.9-1.8,1.5-3.4c-0.3-1.5-1.4-2.7-2.8-2.4
				C-461.8,767.6-462.2,769.1-461.8,770.7z"/>
			<path class="st2" d="M-453.1,764.5l1.1,4.6c0.4,1.5,1.2,2.1,2.1,1.9c1-0.2,1.5-1.1,1.1-2.6l-1.1-4.6l1.4-0.3l1,4.5
				c0.6,2.4-0.4,3.8-2.3,4.2c-1.8,0.4-3.2-0.3-3.8-2.8l-1-4.5L-453.1,764.5z"/>
			<path class="st2" d="M-445.5,762.8c0.5-0.2,1.3-0.5,2.1-0.7c1.1-0.3,1.9-0.3,2.6,0.1c0.5,0.3,0.9,0.8,1,1.4c0.2,1-0.3,1.9-1,2.3
				l0,0c0.6,0.1,1.1,0.6,1.5,1.3c0.5,0.9,0.9,1.8,1.1,2.1l-1.5,0.3c-0.2-0.2-0.5-0.8-1-1.7c-0.5-1-0.9-1.2-1.7-1l-0.6,0.1l0.8,3.2
				l-1.4,0.3L-445.5,762.8z M-443.3,766l0.9-0.2c1-0.2,1.5-0.9,1.3-1.7c-0.2-0.9-0.9-1.1-1.8-0.9c-0.5,0.1-0.7,0.2-0.9,0.3
				L-443.3,766z"/>
		</g>
	</g>
	<g>
		<path class="st0" d="M-504.7,772.5v3c1.5,0,2.8,1.2,2.8,2.8c0,1.6-1.2,2.8-2.8,2.8v3c1.5,0,2.8,1.2,2.8,2.8c0,1.5-1.2,2.8-2.8,2.8
			v3c1.5,0,2.8,1.2,2.8,2.8c0,1.5-1.2,2.8-2.8,2.8v3c1.5,0,2.8,1.2,2.8,2.8c0,1.5-1.2,2.8-2.8,2.8v3c1.5,0,2.8,1.2,2.8,2.8
			c0,1.5-1.2,2.8-2.8,2.8v3c1.5,0,2.8,1.2,2.8,2.8c0,1.5-1.2,2.8-2.8,2.8v3c1.5,0,2.8,1.2,2.8,2.8c0,1.5-1.2,2.8-2.8,2.8v3
			c1.5,0,2.8,1.2,2.8,2.8c0,1.5-1.2,2.8-2.8,2.8v3c1.5,0,2.8,1.2,2.8,2.8c0,1.5-1.2,2.8-2.8,2.8v3c1.5,0,2.8,1.2,2.8,2.8
			c0,1.5-1.2,2.8-2.8,2.8v3c1.5,0,2.8,1.2,2.8,2.8c0,1.5-1.2,2.8-2.8,2.8v3c0.4,0,0.7,0.1,1,0.2h182.9v-3c-1.5,0-2.8-1.2-2.8-2.8
			c0-1.5,1.2-2.8,2.8-2.8v-3c-1.5,0-2.8-1.2-2.8-2.8c0-1.5,1.2-2.8,2.8-2.8v-3c-1.5,0-2.8-1.2-2.8-2.8c0-1.5,1.2-2.8,2.8-2.8v-3
			c-1.5,0-2.8-1.2-2.8-2.8c0-1.5,1.2-2.8,2.8-2.8v-3c-1.5,0-2.8-1.2-2.8-2.8c0-1.5,1.2-2.8,2.8-2.8v-3c-1.5,0-2.8-1.2-2.8-2.8
			c0-1.5,1.2-2.8,2.8-2.8v-3c-1.5,0-2.8-1.2-2.8-2.8c0-1.5,1.2-2.8,2.8-2.8v-3c-1.5,0-2.8-1.2-2.8-2.8c0-1.6,1.2-2.8,2.8-2.8v-3
			c-1.5,0-2.8-1.2-2.8-2.8c0-1.5,1.2-2.8,2.8-2.8v-3c-1.5,0-2.8-1.2-2.8-2.8c0-1.5,1.2-2.8,2.8-2.8v-3c-1.5,0-2.8-1.2-2.8-2.8
			c0-1.5,1.2-2.8,2.8-2.8v-3c-0.4,0-0.7-0.1-1-0.2H-504.7z"/>
		<path class="st1" d="M-503.5,868.3c-0.1,0-0.2,0-0.2-0.1V867c1.6-0.4,2.8-1.9,2.8-3.6c0-1.7-1.2-3.2-2.8-3.6v-1.2
			c1.6-0.4,2.8-1.9,2.8-3.6s-1.2-3.2-2.8-3.6v-1.2c1.6-0.4,2.8-1.9,2.8-3.6s-1.2-3.2-2.8-3.6v-1.2c1.6-0.4,2.8-1.9,2.8-3.6
			c0-1.7-1.2-3.2-2.8-3.6v-1.2c1.6-0.4,2.8-1.9,2.8-3.6c0-1.7-1.2-3.2-2.8-3.6V825c1.6-0.4,2.8-1.9,2.8-3.6s-1.2-3.2-2.8-3.6v-1.2
			c1.6-0.4,2.8-1.9,2.8-3.6s-1.2-3.2-2.8-3.6v-1.2c1.6-0.4,2.8-1.9,2.8-3.6s-1.2-3.2-2.8-3.6v-1.2c1.6-0.4,2.8-1.9,2.8-3.6
			c0-1.7-1.2-3.2-2.8-3.6v-1.2c1.6-0.4,2.8-1.9,2.8-3.6s-1.2-3.2-2.8-3.6V783c1.6-0.4,2.8-1.9,2.8-3.6s-1.2-3.2-2.8-3.6v-1.1H-322
			c0.1,0,0.2,0,0.2,0.1v1.2c-1.6,0.4-2.8,1.9-2.8,3.6s1.2,3.2,2.8,3.6v1.2c-1.6,0.4-2.8,1.9-2.8,3.6c0,1.7,1.2,3.2,2.8,3.6v1.2
			c-1.6,0.4-2.8,1.9-2.8,3.6s1.2,3.2,2.8,3.6v1.2c-1.6,0.4-2.8,1.9-2.8,3.6s1.2,3.2,2.8,3.6v1.2c-1.6,0.4-2.8,1.9-2.8,3.6
			c0,1.7,1.2,3.2,2.8,3.6v1.2c-1.6,0.4-2.8,1.9-2.8,3.6c0,1.7,1.2,3.2,2.8,3.6v1.2c-1.6,0.4-2.8,1.9-2.8,3.6s1.2,3.2,2.8,3.6v1.2
			c-1.6,0.4-2.8,1.9-2.8,3.6s1.2,3.2,2.8,3.6v1.2c-1.6,0.4-2.8,1.9-2.8,3.6s1.2,3.2,2.8,3.6v1.2c-1.6,0.4-2.8,1.9-2.8,3.6
			c0,1.7,1.2,3.2,2.8,3.6v1.2c-1.6,0.4-2.8,1.9-2.8,3.6s1.2,3.2,2.8,3.6v1.1H-503.5z"/>
		<rect x="-492.5" y="776.8" class="st2" width="158.5" height="88.1"/>
		<rect x="-492.6" y="839.6" class="st3" width="158.5" height="18"/>
		<rect x="-491.7" y="783.8" class="st3" width="158.5" height="13.3"/>
		<g>
			<path class="st4" d="M-450.5,816.2h-3.9v-2h10.1v2h-3.9v11.4h-2.4L-450.5,816.2L-450.5,816.2z"/>
			<path class="st4" d="M-438,814.2h2.4v13.4h-2.4V814.2z"/>
			<path class="st4" d="M-428.9,820.9c0-1.1,0.2-2.1,0.5-2.9c0.3-0.9,0.8-1.6,1.3-2.2c0.6-0.6,1.2-1.1,2-1.4
				c0.8-0.3,1.6-0.5,2.4-0.5c0.8,0,1.6,0.2,2.2,0.5c0.6,0.3,1.2,0.7,1.6,1.2l-1.3,1.5c-0.4-0.3-0.7-0.6-1.1-0.8
				c-0.4-0.2-0.8-0.3-1.4-0.3c-0.5,0-1.1,0.1-1.5,0.3c-0.5,0.2-0.9,0.5-1.2,1c-0.3,0.4-0.6,0.9-0.8,1.5c-0.2,0.6-0.3,1.3-0.3,2
				c0,1.5,0.3,2.7,1,3.6c0.7,0.9,1.6,1.3,2.7,1.3c0.6,0,1.1-0.1,1.6-0.3c0.5-0.2,0.9-0.6,1.2-1l1.3,1.5c-0.5,0.6-1.2,1.1-1.9,1.4
				c-0.7,0.3-1.5,0.5-2.3,0.5s-1.6-0.2-2.4-0.5c-0.7-0.3-1.4-0.7-1.9-1.3s-1-1.3-1.3-2.2C-428.7,823-428.9,822-428.9,820.9z"/>
			<path class="st4" d="M-412.3,814.2h2.4v6.1h0.1l4.8-6.1h2.6l-4.1,5.2l4.8,8.2h-2.6l-3.6-6.3l-1.9,2.4v3.9h-2.4L-412.3,814.2
				L-412.3,814.2z"/>
			<path class="st4" d="M-396.1,814.2h8.1v2h-5.7v3.4h4.8v2h-4.8v4h5.9v2h-8.3V814.2z"/>
			<path class="st4" d="M-378.3,816.2h-3.9v-2h10.1v2h-3.9v11.4h-2.4L-378.3,816.2L-378.3,816.2z"/>
		</g>
		<g>
			<circle class="st3" cx="-463.8" cy="820.9" r="3.3"/>
			<circle class="st3" cx="-362.6" cy="820.9" r="3.3"/>
		</g>
		<g>
			<path class="st2" d="M-462.6,844.9h4.7v1.2h-3.2v2.2h3v1.2h-3v3.4h-1.5V844.9z"/>
			<path class="st2" d="M-453.8,844.9v8.1h-1.5v-8.1H-453.8z"/>
			<path class="st2" d="M-450.9,853v-8.1h1.7l2.1,3.5c0.5,0.9,1,1.8,1.4,2.7l0,0c-0.1-1.1-0.1-2.1-0.1-3.4v-2.8h1.4v8.1h-1.5
				l-2.1-3.5c-0.5-0.9-1.1-1.9-1.5-2.8l0,0c0.1,1,0.1,2.1,0.1,3.4v2.9H-450.9L-450.9,853z"/>
			<path class="st2" d="M-441.6,845c0.6-0.1,1.5-0.2,2.4-0.2c1.5,0,2.6,0.3,3.3,0.9c0.8,0.6,1.3,1.6,1.3,3c0,1.4-0.5,2.5-1.3,3.2
				c-0.8,0.7-2.1,1.1-3.7,1.1c-0.9,0-1.5,0-2-0.1V845z M-440.2,851.9c0.2,0,0.5,0,0.8,0c1.9,0,3.1-1,3.1-3.1c0-1.8-1-2.8-2.9-2.8
				c-0.5,0-0.8,0-1,0.1L-440.2,851.9L-440.2,851.9z"/>
			<path class="st2" d="M-421.4,848.9c0,2.7-1.6,4.3-3.9,4.3s-3.7-1.7-3.7-4.1c0-2.5,1.6-4.2,3.8-4.2
				C-422.8,844.8-421.4,846.6-421.4,848.9z M-427.4,849c0,1.6,0.8,3,2.2,3c1.4,0,2.2-1.3,2.2-3c0-1.5-0.8-3-2.2-3
				C-426.6,846-427.4,847.3-427.4,849z"/>
			<path class="st2" d="M-417.4,844.9v4.7c0,1.6,0.7,2.3,1.7,2.3c1.1,0,1.7-0.7,1.7-2.3v-4.7h1.5v4.6c0,2.5-1.3,3.6-3.2,3.6
				c-1.9,0-3.1-1-3.1-3.6v-4.6H-417.4z"/>
			<path class="st2" d="M-408.2,846.2h-2.3V845h6.1v1.2h-2.3v6.8h-1.5V846.2z"/>
			<path class="st2" d="M-391.7,849.7c0-1-0.1-2.3-0.1-3.4l0,0c-0.3,1-0.6,2.1-1,3.1l-1.2,3.5h-1.1l-1.1-3.5c-0.3-1-0.6-2.1-0.8-3.1
				l0,0c0,1.1-0.1,2.3-0.1,3.4l-0.2,3.2h-1.4l0.5-8.1h1.9l1.1,3.3c0.3,0.9,0.5,1.9,0.7,2.8l0,0c0.2-0.9,0.5-1.9,0.8-2.8l1.1-3.2h1.9
				l0.5,8.1h-1.4L-391.7,849.7z"/>
			<path class="st2" d="M-380.2,848.9c0,2.7-1.6,4.3-3.9,4.3c-2.3,0-3.7-1.7-3.7-4.1c0-2.5,1.6-4.2,3.8-4.2
				C-381.6,844.8-380.2,846.6-380.2,848.9z M-386.3,849c0,1.6,0.8,3,2.2,3s2.2-1.3,2.2-3c0-1.5-0.8-3-2.2-3S-386.3,847.3-386.3,849z
				"/>
			<path class="st2" d="M-377.8,845c0.6-0.1,1.4-0.2,2.2-0.2c1.2,0,2,0.2,2.5,0.6c0.4,0.4,0.7,0.9,0.7,1.6c0,1-0.7,1.8-1.5,2l0,0
				c0.6,0.2,0.9,0.8,1.1,1.6c0.3,1,0.5,1.9,0.6,2.3h-1.5c-0.1-0.2-0.3-0.9-0.5-1.9c-0.2-1.1-0.6-1.4-1.5-1.4h-0.7v3.3h-1.5V845
				H-377.8z M-376.3,848.6h0.9c1,0,1.6-0.5,1.6-1.3c0-0.9-0.6-1.3-1.6-1.3c-0.5,0-0.8,0-0.9,0.1V848.6z"/>
			<path class="st2" d="M-365.2,849.4h-3v2.4h3.4v1.2h-4.9v-8.1h4.7v1.2h-3.2v2.1h3V849.4z"/>
		</g>
		<g>
			<path class="st2" d="M-437.8,794.3c-0.5,0.2-1.5,0.5-2.6,0.5c-1.4,0-2.4-0.3-3.2-1.1c-0.7-0.7-1.1-1.8-1.1-3
				c0-2.6,1.8-4.2,4.5-4.2c1,0,1.8,0.2,2.1,0.4l-0.3,1.2c-0.4-0.2-1-0.3-1.8-0.3c-1.7,0-2.9,1-2.9,2.9c0,1.8,1.1,2.9,2.8,2.9
				c0.5,0,0.9-0.1,1.1-0.2v-2h-1.4v-1.2h2.9L-437.8,794.3L-437.8,794.3z"/>
			<path class="st2" d="M-430.6,791.1h-3v2.4h3.4v1.2h-4.9v-8.1h4.7v1.2h-3.2v2.1h3V791.1z"/>
			<path class="st2" d="M-426.1,787.8h-2.3v-1.2h6.1v1.2h-2.3v6.8h-1.5V787.8z"/>
			<path class="st2" d="M-415.1,794.7v-3.4l-2.6-4.7h1.7l1,2.1c0.3,0.6,0.5,1.1,0.7,1.6l0,0c0.2-0.5,0.4-1,0.7-1.6l1-2.1h1.7
				l-2.7,4.7v3.4H-415.1z"/>
			<path class="st2" d="M-402.2,790.5c0,2.7-1.6,4.3-3.9,4.3c-2.3,0-3.7-1.7-3.7-4.1c0-2.5,1.6-4.2,3.8-4.2
				C-403.6,786.5-402.2,788.2-402.2,790.5z M-408.2,790.7c0,1.6,0.8,3,2.2,3s2.2-1.3,2.2-3c0-1.5-0.8-3-2.2-3
				C-407.4,787.6-408.2,789-408.2,790.7z"/>
			<path class="st2" d="M-398.2,786.6v4.7c0,1.6,0.7,2.3,1.7,2.3c1.1,0,1.7-0.7,1.7-2.3v-4.7h1.5v4.6c0,2.5-1.3,3.6-3.2,3.6
				s-3.1-1-3.1-3.6v-4.6H-398.2z"/>
			<path class="st2" d="M-390.5,786.7c0.6-0.1,1.4-0.2,2.2-0.2c1.2,0,2,0.2,2.5,0.6c0.4,0.4,0.7,0.9,0.7,1.6c0,1-0.7,1.8-1.5,2l0,0
				c0.6,0.2,0.9,0.8,1.1,1.6c0.3,1,0.5,1.9,0.6,2.3h-1.5c-0.1-0.2-0.3-0.9-0.5-1.9c-0.2-1.1-0.6-1.4-1.5-1.4h-0.7v3.3h-1.5
				L-390.5,786.7L-390.5,786.7z M-389.1,790.3h0.9c1,0,1.6-0.5,1.6-1.3c0-0.9-0.6-1.3-1.6-1.3c-0.5,0-0.8,0-0.9,0.1V790.3z"/>
		</g>
	</g>
</g>
</svg>
